# xmcd CD database file
#
# Track frame offsets:
#	150
#	13823
#	42431
#	66480
#	71491
#	102639
#	128454
#	194779
#	223799
#	251067
#	276276
#	292393
#	342030
#
# Disc length: 4657 seconds
#
# Revision: 1
# Processed by: cddbd v1.5.2PL0 Copyright (c) Steve Scherf et al.
# Submitted via: CDex 1.70beta2
#
DISCID=e0122f0d
DTITLE=Wolf Nilson - Im Schafspelz
DYEAR=2010
DGENRE=Jazz
TTITLE0=Wohin
TTITLE1=Freitag XIII (Nilson/Nyland)
TTITLE2=Dignity (Corea)
TTITLE3=Kleines Geigenlied
TTITLE4=Tagebuch einer Flöte
TTITLE5=Folksong
TTITLE6=Waldnickerchen's Traum (Lennon)
TTITLE7=Moisy Doisy Filibum Ararat (Tepe)
TTITLE8=Auf der anderen Seite (Kisters)
TTITLE9=Im Schafspelz
TTITLE10=Carly's Mood (Quiroz)
TTITLE11=Planck-Ton
TTITLE12=Hier
EXTD=YEAR: 2010
EXTT0=
EXTT1=
EXTT2=
EXTT3=
EXTT4=
EXTT5=
EXTT6=
EXTT7=
EXTT8=
EXTT9=
EXTT10=
EXTT11=
EXTT12=
PLAYORDER=
